{"title":"Salvage.2009.720p.BRRip.x264.Feel-Free","uid":6173789,"size":1853177122,"categoryP":"video","categoryS":"hd___movies","magnet":"?xt=urn:btih:94f0e776186171e552ba575546648d7925c165b6&amp;dn=Salvage.2009.720p.BRRip.x264.Feel-Free&amp;tr=udp%3A%2F%2Ftracker.openbittorrent.com%3A80&amp;tr=udp%3A%2F%2Fopen.demonii.com%3A1337&amp;tr=udp%3A%2F%2Ftracker.coppersurfer.tk%3A6969&amp;tr=udp%3A%2F%2Fexodus.desync.com%3A6969","seeders":1,"leechers":0,"uploader":"hiest","files":-1,"time":1297689447,"description":"Genre:Horror \nLanguage:English\nIMDb:http://www.imdb.com/title/tt1297298/\nSource:1080p.BluRay.x264.MELiTE\n\n\nFormat : MPEG-4\nFormat profile : Base Media\nCodec ID : isom\nFile size : 1.72 GiB\nDuration : 1h 18mn\nOverall bit rate : 3 132 Kbps\n\n\nVideo\nFormat settings, CABAC : Yes\nFormat settings, ReFrames : 3 frames\nFormat settings, GOP : M=1, N=11\nCodec ID : avc1\nCodec ID/Info : Advanced Video Coding\nDuration : 1h 18mn\nBit rate mode : Variable\nBit rate : 2 789 Kbps\nMaximum bit rate : 23.9 Mbps\nWidth : 1 280 pixels\nHeight : 720 pixels\nDisplay aspect ratio : 16:9\nFrame rate mode : Constant\nFrame rate : 23.976 fps\nColor space : YUV\nChroma subsampling : 4:2:0\nBit depth : 8 bits\nScan type : Progressive\nBits/(Pixel*Frame) : 0.126\nStream size : 1.49 GiB (87%)\nWriting library : x264\n\nAudio\nID : 2\nFormat : AAC\nFormat/Info : Advanced Audio Codec\nFormat version : Version 4\nFormat profile : LC\nFormat settings, SBR : No\nCodec ID : 40\nDuration : 1h 18mn\nBit rate mode : Variable\nBit rate : 411 Kbps\nMaximum bit rate : 572 Kbps\nChannel(s) : 6 channels\nChannel positions : Front: L C R, Side: L R, LFE\nSampling rate : 48.0 KHz\nStream size : 231 MiB (13%)\n\n\nPlot:\nWhen a container washes ashore the residents of a sleepy cul-de-sac are plunged into violence, terror and paranoia. Ring fenced by the military a single mother must overcome all the odds to save her daughter.\n\n\n\n\n\n\n\n================================== &lt;a href=&quot;\nhttp://thepiratebay.se/user/hiest&quot; rel=&quot;nofollow&quot; target=&quot;_NEW&quot;&gt;\nhttp://thepiratebay.se/user/hiest&lt;/a&gt;\n==================================\n\n\n\n\n\n\nScreenshots:\n &lt;a href=&quot;\nhttp://rapidhdd.com/images/139843vlcsnap-00001.png&quot; rel=&quot;nofollow&quot; target=&quot;_NEW&quot;&gt;\nhttp://rapidhdd.com/images/139843vlcsnap-00001.png&lt;/a&gt;\n &lt;a href=&quot;\nhttp://www.rapidhdd.com/images/663199vlcsnap-00003.png&quot; rel=&quot;nofollow&quot; target=&quot;_NEW&quot;&gt;\nhttp://www.rapidhdd.com/images/663199vlcsnap-00003.png&lt;/a&gt;\n &lt;a href=&quot;\nhttp://www.rapidhdd.com/images/829483vlcsnap-00005.png&quot; rel=&quot;nofollow&quot; target=&quot;_NEW&quot;&gt;\nhttp://www.rapidhdd.com/images/829483vlcsnap-00005.png&lt;/a&gt;\n &lt;a href=&quot;\nhttp://www.rapidhdd.com/images/241181vlcsnap-00002.png&quot; rel=&quot;nofollow&quot; target=&quot;_NEW&quot;&gt;\nhttp://www.rapidhdd.com/images/241181vlcsnap-00002.png&lt;/a&gt;","torrent":{"xt":"urn:btih:94f0e776186171e552ba575546648d7925c165b6","amp;dn":"Salvage.2009.720p.BRRip.x264.Feel-Free","amp;tr":["udp%3A%2F%2Ftracker.openbittorrent.com%3A80","udp%3A%2F%2Fopen.demonii.com%3A1337","udp%3A%2F%2Ftracker.coppersurfer.tk%3A6969","udp%3A%2F%2Fexodus.desync.com%3A6969"],"infoHash":"94f0e776186171e552ba575546648d7925c165b6","infoHashBuffer":{"type":"Buffer","data":[148,240,231,118,24,97,113,229,82,186,87,85,70,100,141,121,37,193,101,182]},"announce":[],"urlList":[]}}